<?xml version="1.0" standalone="no"?>
<!DOCTYPE svg PUBLIC "-//W3C//DTD SVG 20010904//EN"
 "http://www.w3.org/TR/2001/REC-SVG-20010904/DTD/svg10.dtd">
<svg version="1.0" xmlns="http://www.w3.org/2000/svg"
 width="228.000000pt" height="221.000000pt" viewBox="0 0 228.000000 221.000000"
 preserveAspectRatio="xMidYMid meet">

<g transform="translate(0.000000,221.000000) scale(0.100000,-0.100000)"
fill="#000000" stroke="none">
<path d="M1348 2103 c17 -2 47 -2 65 0 17 2 3 4 -33 4 -36 0 -50 -2 -32 -4z"/>
<path d="M1228 2093 c18 -2 45 -2 60 0 15 2 0 4 -33 4 -33 0 -45 -2 -27 -4z"/>
<path d="M897 2073 c18 -2 50 -2 70 0 21 2 7 4 -32 4 -38 0 -55 -2 -38 -4z"/>
<path d="M200 2030 c-31 -7 -29 -8 17 -6 29 1 55 5 59 9 9 9 -29 7 -76 -3z"/>
<path d="M2021 1904 c0 -11 3 -14 6 -6 3 7 2 16 -1 19 -3 4 -6 -2 -5 -13z"/>
<path d="M2023 1650 c0 -47 2 -66 4 -42 2 23 2 61 0 85 -2 23 -4 4 -4 -43z"/>
<path d="M1480 1567 c3 -3 19 -7 35 -8 17 -2 34 -8 38 -14 5 -6 7 -4 5 5 -3 8
-20 16 -44 18 -21 2 -37 2 -34 -1z"/>
<path d="M1580 1553 c0 -5 18 -8 40 -8 22 0 40 3 40 8 0 4 -18 7 -40 7 -22 0
-40 -3 -40 -7z"/>
<path d="M1677 1553 c-3 -5 13 -8 34 -9 21 -1 39 3 39 7 0 11 -67 12 -73 2z"/>
<path d="M1817 1543 c19 -3 34 -11 36 -21 3 -12 5 -10 6 6 1 19 -3 22 -36 20
-37 -1 -37 -1 -6 -5z"/>
<path d="M1888 1507 c3 -23 6 -55 7 -72 0 -17 7 -33 15 -37 10 -4 5 -7 -13 -7
-16 -1 -26 -5 -23 -9 3 -5 29 -8 58 -7 29 1 59 -2 66 -8 7 -5 15 -7 18 -4 8 8
9 161 1 174 -4 6 -36 11 -71 11 l-64 0 6 -41z m101 1 c-1 -17 -2 -19 -6 -5 -5
18 -33 24 -33 6 0 -6 5 -20 11 -31 10 -18 9 -20 -6 -14 -13 5 -16 2 -11 -10 3
-8 6 -22 6 -30 0 -27 29 -2 33 29 4 31 4 31 5 -4 2 -27 -3 -38 -15 -43 -10 -3
-23 -8 -29 -11 -22 -11 -30 36 -15 86 12 40 19 49 38 49 18 0 23 -5 22 -22z"/>
<path d="M1931 1424 c0 -11 3 -14 6 -6 3 7 2 16 -1 19 -3 4 -6 -2 -5 -13z"/>
<path d="M1502 1528 c-5 -7 -13 -23 -16 -35 -6 -17 -3 -23 8 -23 27 0 16 -76
-13 -83 -9 -3 5 -5 32 -6 26 0 47 3 47 8 0 5 -9 7 -20 4 -17 -5 -20 0 -20 30
0 37 25 59 33 29 4 -13 5 -12 6 4 1 24 -26 84 -39 84 -4 0 -12 -6 -18 -12z"/>
<path d="M1598 1518 c-2 -13 0 -36 5 -51 5 -15 7 -36 4 -47 -4 -14 0 -20 11
-20 14 0 17 13 20 70 2 64 0 70 -17 70 -13 0 -21 -8 -23 -22z"/>
<path d="M1651 1514 c0 -11 3 -14 6 -6 3 7 2 16 -1 19 -3 4 -6 -2 -5 -13z"/>
<path d="M1690 1468 c0 -37 -5 -69 -12 -76 -9 -9 -1 -12 37 -12 46 0 47 1 32
18 -18 19 -24 82 -8 82 4 0 6 11 3 25 -8 47 -22 25 -22 -35 0 -38 -4 -60 -11
-60 -8 0 -10 17 -5 54 3 33 2 57 -4 61 -6 4 -10 -17 -10 -57z"/>
<path d="M1811 1512 c-6 -10 -13 -34 -16 -53 -6 -32 -5 -33 9 -14 12 15 15 16
16 5 0 -28 -12 -60 -21 -54 -5 3 -9 0 -9 -5 0 -6 16 -11 35 -11 27 0 35 4 34
18 0 10 -3 12 -6 5 -10 -25 -23 -12 -23 22 0 39 16 48 23 13 2 -13 5 -5 6 18
1 29 -5 46 -18 58 -18 17 -20 17 -30 -2z"/>
<path d="M1871 1494 c0 -11 3 -14 6 -6 3 7 2 16 -1 19 -3 4 -6 -2 -5 -13z"/>
<path d="M1653 1455 c0 -22 2 -30 4 -17 2 12 2 30 0 40 -3 9 -5 -1 -4 -23z"/>
<path d="M628 1472 c-22 -4 -23 -18 -3 -26 8 -3 15 0 15 7 0 8 3 7 9 -2 8 -12
15 -11 42 7 l32 20 -39 -1 c-21 -1 -47 -3 -56 -5z"/>
<path d="M1871 1444 c0 -11 3 -14 6 -6 3 7 2 16 -1 19 -3 4 -6 -2 -5 -13z"/>
<path d="M370 1439 c0 -9 68 -4 77 5 3 3 -13 5 -36 4 -23 0 -41 -4 -41 -9z"/>
<path d="M768 1425 c-4 -16 -9 -39 -12 -50 -4 -11 1 -5 9 14 9 18 14 41 13 50
-2 9 -7 3 -10 -14z"/>
<path d="M378 1408 c7 -7 16 -7 28 0 14 8 13 10 -10 10 -18 0 -24 -4 -18 -10z"/>
<path d="M629 1403 c-1 -5 -1 -11 0 -15 1 -11 -7 -10 -29 2 -32 17 -35 -9 -4
-41 15 -16 23 -29 17 -29 -6 0 -16 7 -23 15 -7 8 -17 15 -22 15 -6 0 -5 -6 1
-14 9 -11 10 -20 1 -35 -10 -20 -12 -20 -36 -5 -14 9 -29 25 -35 35 -20 39
-69 6 -69 -47 0 -40 16 -54 61 -54 55 0 90 15 83 37 -5 14 -4 15 4 4 9 -12 12
-12 24 0 8 8 13 20 10 27 -5 16 25 16 31 0 5 -12 26 30 42 81 5 16 4 21 -4 17
-6 -4 -11 -16 -11 -27 0 -10 -4 -19 -9 -19 -8 0 -24 37 -22 53 1 4 -1 7 -4 7
-3 0 -6 -3 -6 -7z m2 -46 c-10 -9 -11 -8 -5 6 3 10 9 15 12 12 3 -3 0 -11 -7
-18z m-36 -57 c3 -5 1 -10 -4 -10 -6 0 -11 5 -11 10 0 6 2 10 4 10 3 0 8 -4
11 -10z"/>
<path d="M1615 1390 l-40 -7 43 -2 c23 0 42 4 42 9 0 6 -1 9 -2 9 -2 -1 -21
-5 -43 -9z"/>
<path d="M2008 1345 c-2 -3 -76 -8 -164 -11 -97 -4 -162 -11 -166 -18 -5 -8
-8 -7 -8 2 0 14 -36 17 -44 3 -4 -5 0 -12 6 -14 10 -4 10 -6 0 -6 -7 -1 -15 5
-18 13 -4 11 -12 13 -31 5 -13 -5 -47 -9 -74 -9 -27 0 -49 -4 -49 -9 0 -4 26
-8 57 -7 l57 1 -3 -56 c-3 -61 0 -63 65 -53 31 4 32 5 30 57 l-1 52 48 3 c26
2 47 7 47 13 0 5 50 9 118 9 105 0 156 9 141 24 -3 4 -8 4 -11 1z"/>
<path d="M233 1323 c26 -2 67 -2 90 0 23 2 2 3 -48 3 -50 0 -68 -1 -42 -3z"/>
<path d="M1135 1320 c-15 -7 -9 -9 25 -9 33 -1 41 2 30 9 -18 12 -28 12 -55 0z"/>
<path d="M610 1195 c-8 -9 -19 -27 -25 -39 -6 -11 -21 -22 -34 -24 -17 -3 -21
-8 -15 -20 3 -9 11 -36 17 -59 12 -51 23 -55 32 -10 4 17 14 54 23 81 12 40
17 46 23 30 9 -24 10 1 0 35 -6 22 -7 23 -21 6z"/>
<path d="M973 1098 c-13 -6 -23 -15 -23 -19 0 -5 -7 -6 -15 -3 -10 4 -15 0
-15 -15 0 -17 3 -20 18 -13 9 5 26 6 37 1 35 -13 51 -9 23 7 -40 21 -36 38 7
30 35 -7 49 6 19 18 -20 8 -24 7 -51 -6z"/>
<path d="M916 1014 c-5 -12 -2 -15 10 -10 8 3 23 6 32 6 15 0 15 2 2 10 -22
14 -37 12 -44 -6z"/>
<path d="M920 980 c0 -5 7 -7 15 -4 8 4 15 8 15 10 0 2 -7 4 -15 4 -8 0 -15
-4 -15 -10z"/>
<path d="M548 947 c-3 -19 -2 -25 4 -19 6 6 8 18 6 28 -3 14 -5 12 -10 -9z"/>
<path d="M950 946 c0 -2 7 -7 16 -10 8 -3 12 -2 9 4 -6 10 -25 14 -25 6z"/>
<path d="M553 913 c-15 -5 -17 -23 -4 -23 5 0 11 7 15 15 3 8 4 15 3 14 -1 0
-8 -3 -14 -6z"/>
<path d="M1946 878 c3 -4 -13 -11 -36 -14 l-40 -7 0 -82 c0 -57 4 -85 13 -88
7 -3 5 -6 -5 -6 -14 -1 -18 7 -18 34 0 19 -4 35 -8 35 -5 0 -7 -13 -4 -30 3
-18 0 -30 -7 -30 -17 0 -13 60 4 66 10 4 15 20 15 50 0 39 -3 44 -22 44 -13 0
-30 -5 -38 -10 -13 -8 -12 -10 3 -10 21 0 22 -13 2 -30 -19 -16 -19 -50 0 -50
19 0 10 -49 -12 -67 -20 -16 0 -25 30 -14 15 6 37 6 54 1 23 -7 24 -8 6 -9
-12 -1 -25 -6 -28 -11 -4 -6 -11 -8 -16 -4 -5 3 -16 0 -24 -6 -11 -9 -15 -9
-15 -1 0 6 -8 3 -18 -6 -10 -10 -18 -19 -18 -20 3 -5 257 74 257 80 -1 4 -1
49 -1 100 l0 93 -39 -1 c-21 0 -37 -3 -35 -7z m8 -33 c3 -8 1 -15 -4 -15 -6 0
-10 7 -10 15 0 8 2 15 4 15 2 0 6 -7 10 -15z m33 -7 c-3 -8 -6 -5 -6 6 -1 11
2 17 5 13 3 -3 4 -12 1 -19z m-137 -19 c0 -11 -4 -17 -10 -14 -5 3 -10 13 -10
21 0 8 5 14 10 14 6 0 10 -9 10 -21z m40 -93 c-7 -7 -10 12 -9 50 l1 59 9 -50
c5 -30 4 -54 -1 -59z m58 42 c-1 -37 -2 -43 -5 -20 -2 18 -9 30 -14 27 -5 -4
-9 -1 -9 4 0 6 5 11 10 11 6 0 10 7 10 15 0 8 2 15 5 15 3 0 4 -24 3 -52z
m-18 -23 c0 -8 -4 -15 -10 -15 -5 0 -10 7 -10 15 0 8 5 15 10 15 6 0 10 -7 10
-15z m35 -45 c3 -6 -1 -7 -9 -4 -18 7 -21 14 -7 14 6 0 13 -4 16 -10z m-30
-10 c3 -5 1 -10 -4 -10 -6 0 -11 5 -11 10 0 6 2 10 4 10 3 0 8 -4 11 -10z"/>
<path d="M210 833 c0 -5 10 -9 23 -9 103 -1 107 -2 107 -35 l0 -32 -25 27
c-19 21 -31 26 -48 20 -12 -4 -24 -11 -25 -16 -2 -4 -10 -15 -18 -22 -8 -8
-14 -32 -14 -54 0 -45 11 -52 93 -52 l47 0 0 85 0 85 -32 0 c-18 0 -50 3 -70
6 -21 4 -38 2 -38 -3z m58 -112 c2 -15 0 -21 -7 -17 -6 4 -11 0 -11 -8 0 -9
-7 -16 -15 -16 -10 0 -15 10 -15 33 0 29 3 33 23 32 15 -1 23 -9 25 -24z m72
-16 c0 -33 -2 -35 -33 -35 -32 0 -33 1 -29 35 4 31 8 35 33 35 26 0 29 -3 29
-35z"/>
<path d="M203 795 c0 -8 4 -15 9 -15 4 0 8 7 8 15 0 8 -4 15 -8 15 -5 0 -9 -7
-9 -15z"/>
<path d="M811 778 c1 -17 3 -18 6 -5 4 14 16 17 74 17 l69 0 0 -42 c-1 -42 -1
-42 -14 -19 -23 42 -66 51 -96 21 -27 -27 -25 -37 9 -45 22 -5 28 -10 24 -25
-3 -11 -10 -17 -16 -13 -6 4 -8 -2 -5 -15 5 -18 2 -22 -17 -22 -19 0 -25 6
-28 33 -4 31 -4 31 -5 -5 l-2 -38 45 0 c25 0 44 3 44 8 -1 4 -1 22 0 40 1 29
4 32 31 32 28 0 30 -2 30 -39 0 -36 -3 -40 -27 -44 -26 -4 -25 -4 5 -6 l33 -1
-3 93 -3 92 -77 3 c-76 3 -78 2 -77 -20z"/>
<path d="M1033 783 c15 -2 39 -2 55 0 15 2 2 4 -28 4 -30 0 -43 -2 -27 -4z"/>
<path d="M1143 773 c27 -4 27 -5 27 -85 l0 -80 -79 3 c-44 2 -77 1 -74 -3 2
-5 40 -8 84 -8 l79 0 0 90 0 90 -32 -1 c-31 -2 -31 -2 -5 -6z"/>
<path d="M1226 772 c-2 -4 12 -6 32 -4 56 5 62 10 15 11 -23 1 -44 -3 -47 -7z"/>
<path d="M1057 764 c-14 -14 -7 -54 13 -74 24 -24 26 -50 5 -50 -8 0 -15 -4
-15 -10 0 -5 16 -10 36 -10 32 0 34 1 20 16 -21 20 -20 27 4 49 26 23 27 75 3
75 -10 0 -27 3 -38 6 -11 3 -24 2 -28 -2z"/>
<path d="M1353 763 c9 -2 23 -2 30 0 6 3 -1 5 -18 5 -16 0 -22 -2 -12 -5z"/>
<path d="M812 725 c0 -16 2 -22 5 -12 2 9 2 23 0 30 -3 6 -5 -1 -5 -18z"/>
<path d="M1256 734 c-4 -9 -2 -22 3 -28 5 -6 11 -27 14 -46 l4 -35 1 37 c1 20
7 38 13 40 9 3 9 10 0 26 -14 26 -26 28 -35 6z"/>
<path d="M1330 731 c-8 -16 -9 -26 -2 -30 6 -3 12 -24 15 -46 l4 -40 1 43 c1
23 7 42 12 42 14 0 12 13 -4 35 -13 18 -14 18 -26 -4z"/>
<path d="M1792 710 c0 -14 2 -19 5 -12 2 6 2 18 0 25 -3 6 -5 1 -5 -13z"/>
<path d="M625 709 c-17 -26 -23 -174 -10 -234 11 -48 13 -53 14 -25 1 19 6 83
13 142 9 78 9 111 1 119 -8 8 -13 7 -18 -2z"/>
<path d="M1222 700 c0 -14 2 -19 5 -12 2 6 2 18 0 25 -3 6 -5 1 -5 -13z"/>
<path d="M1612 700 c-18 -4 -35 -9 -36 -11 -2 -2 -6 -34 -8 -71 l-4 -67 26 6
c70 17 75 20 78 43 5 30 -7 110 -16 109 -4 -1 -22 -5 -40 -9z"/>
<path d="M1221 624 c0 -11 3 -14 6 -6 3 7 2 16 -1 19 -3 4 -6 -2 -5 -13z"/>
<path d="M1245 610 c3 -5 -2 -11 -12 -11 -33 -3 81 -17 127 -16 45 0 45 0 -10
7 -52 6 -53 7 -15 10 l40 2 -40 9 c-56 11 -97 11 -90 -1z"/>
<path d="M1690 600 c-18 -12 -2 -12 25 0 13 6 15 9 5 9 -8 0 -22 -4 -30 -9z"/>
<path d="M626 375 c-10 -52 -10 -185 1 -185 2 0 11 7 19 15 15 15 32 15 127 0
36 -6 26 11 -10 18 -16 3 -39 15 -52 26 -13 12 -29 21 -36 21 -6 0 -20 10 -32
23 -15 18 -18 29 -11 47 5 13 7 36 6 50 -3 20 -5 18 -12 -15z"/>
<path d="M448 188 c6 -6 18 -8 28 -6 14 3 12 5 -9 10 -19 3 -25 2 -19 -4z"/>
</g>
</svg>
